<?xml version="1.0" encoding="utf-8"?>
<!-- Generator: Adobe Illustrator 26.0.0, SVG Export Plug-In . SVG Version: 6.00 Build 0)  -->
<svg version="1.1" id="svg" xmlns="http://www.w3.org/2000/svg" xmlns:xlink="http://www.w3.org/1999/xlink" x="0px" y="0px"
	 viewBox="0 0 128 128" style="enable-background:new 0 0 128 128;" xml:space="preserve">
<style type="text/css">
	.st0{fill:#AFAFAF;}
	.st1{fill:#FFFFFF;}
</style>
<path class="st0" d="M16,0C7.2,0,0,7.1,0,16v96c0,8.8,7.2,16,16,16h96c8.8,0,16-7.2,16-16V16c0-8.8-7.2-16-16-16H16z"/>
<path class="st1" d="M73.4,29.2c6,3.4,9,7.2,11,13.9C86.4,53.5,86,63.6,81,73c-1.5,2.1-3.2,4.1-5,6c-0.8,6.7-0.8,6.7,2.1,9.2
	c2.7,2.6,5.6,4.9,8.8,7C97.3,103,102,112.7,106,125v3H21c1.5-11.9,4.9-22.1,13.7-30.6c3.9-2.8,7.9-5.3,12-7.8
	c2.4-1.3,2.4-1.3,3.3-3.5c0.7-5,0.3-6.6-2.8-10.8l-1.7-2C40.2,65.5,40.1,55,41,46c1.6-7.8,4.3-12.4,11-17
	C58.8,25.7,66.7,25.8,73.4,29.2z M52,41c-3.1,4.2-3.5,6-4,11l3,2l5-10c7-2,7-2,12,0c3,5,3,5,2.6,7.6c-2.3,5-6.1,7.4-10.6,10.4
	c-0.6,4.9-0.6,4.9,2,7l4-1l1.1-3.2c2.1-4.2,4.2-6,7.9-8.8c2.2-4.3,2.5-6.2,2-11c-2.3-4.4-3.5-5.8-8-8C62.3,36.1,57.2,36.3,52,41z
	 M62,72l-3,2l1,7l4,1l4-3l-1-5L62,72z"/>
</svg>
