<svg id="svg" xmlns="http://www.w3.org/2000/svg" viewBox="0 0 128 127.97"><defs><style>.cls-1{fill:#3d3d3d;}.cls-2{fill-opacity:0.4;}</style></defs><path class="cls-1" d="M16,0A16,16,0,0,0,0,16v96a16,16,0,0,0,16,16h96a16,16,0,0,0,16-16V16A16,16,0,0,0,112,0Z" transform="translate(0 -0.03)"/><path d="M73.44,29.19c6,3.4,9,7.2,11,13.89C86.4,53.52,86,63.61,81,73a49,49,0,0,1-5,6c-.8,6.67-.8,6.67,2.13,9.24a67.42,67.42,0,0,0,8.75,7C97.32,103,102,112.75,106,125v3H21c1.49-11.94,4.93-22.07,13.69-30.62,3.9-2.8,7.92-5.34,12-7.83C49.1,88.2,49.1,88.2,50,86c.7-5,.27-6.63-2.81-10.75l-1.65-2C40.16,65.48,40.1,55,41,46c1.63-7.76,4.3-12.42,11-17A24.13,24.13,0,0,1,73.44,29.19ZM52,41c-3.11,4.15-3.52,6-4,11l3,2,5-10c7-2,7-2,12,0,3,5,3,5,2.56,7.56C68.29,56.55,64.42,58.93,60,62c-.59,4.88-.59,4.88,2,7l4-1,1.12-3.19c2.07-4.21,4.24-6,7.88-8.81,2.16-4.33,2.49-6.25,2-11-2.31-4.37-3.51-5.76-8-8C62.34,36.13,57.18,36.34,52,41ZM62,72l-3,2,1,7,4,1,4-3-1-5Z" transform="translate(0 -0.03)"/><path class="cls-2" d="M16,0A16,16,0,0,0,0,16v96a16,16,0,0,0,16,16h96a16,16,0,0,0,16-16V16A16,16,0,0,0,112,0Zm0,4h96a12,12,0,0,1,12,12v96a12,12,0,0,1-12,12H16A12,12,0,0,1,4,112V16A12,12,0,0,1,16,4Z" transform="translate(0 -0.03)"/></svg>